<svg width="94" height="94" viewBox="0 0 94 94" fill="none" xmlns="http://www.w3.org/2000/svg">
<g id="arrow-up">
<path id="Icon (Stroke)" fill-rule="evenodd" clip-rule="evenodd" d="M45.4332 3.91667C46.4719 3.91667 47.4682 4.32932 48.2027 5.06384L62.3027 19.1638C63.8322 20.6934 63.8322 23.1733 62.3027 24.7028C60.7731 26.2324 58.2932 26.2324 56.7637 24.7028L49.3498 17.289L49.3498 83.0333C49.3498 85.1964 47.5963 86.95 45.4332 86.95C43.2701 86.95 41.5165 85.1964 41.5165 83.0333L41.5165 17.289L34.1027 24.7028C32.5731 26.2324 30.0932 26.2324 28.5637 24.7028C27.0341 23.1733 27.0341 20.6934 28.5637 19.1638L42.6637 5.06384C43.3982 4.32932 44.3944 3.91667 45.4332 3.91667Z" fill="#0232FF"/>
</g>
</svg>
