<svg width="94" height="94" viewBox="0 0 94 94" fill="none" xmlns="http://www.w3.org/2000/svg">
<g id="arrow-turn-right" clip-path="url(#clip0_433_15872)">
<path id="Icon (Stroke)" fill-rule="evenodd" clip-rule="evenodd" d="M2.44004 62.3779C4.44374 63.193 6.72876 62.2293 7.54377 60.2256C12.5657 47.8793 24.7342 39.1666 38.9517 39.1666C50.993 39.1666 61.564 45.4142 67.5714 54.8332H60.2042C58.0411 54.8332 56.2876 56.5868 56.2876 58.7499C56.2876 60.913 58.0411 62.6666 60.2042 62.6666H79.0954C81.2585 62.6666 83.0121 60.913 83.0121 58.7499V39.9499C83.0121 37.7868 81.2585 36.0333 79.0954 36.0333C76.9323 36.0333 75.1787 37.7868 75.1787 39.9499V52.2904C75.1433 52.2201 75.1056 52.1505 75.0656 52.0816C67.8573 39.6808 54.3818 31.3333 38.9517 31.3333C21.4568 31.3333 6.47561 42.0613 0.287723 57.2742C-0.527288 59.2779 0.436338 61.5629 2.44004 62.3779Z" fill="#0232FF"/>
</g>
<defs>
<clipPath id="clip0_433_15872">
<rect width="94" height="94" fill="white"/>
</clipPath>
</defs>
</svg>
