<svg width="24" height="25" viewBox="0 0 24 25" fill="none" xmlns="http://www.w3.org/2000/svg">
<g id="camera-01">
<path id="Icon" d="M7.1999 6.61999V7.61999C7.55557 7.61999 7.88447 7.43108 8.06368 7.12386L7.1999 6.61999ZM8.8799 3.73999V2.73999C8.52423 2.73999 8.19533 2.9289 8.01612 3.23612L8.8799 3.73999ZM15.1199 3.73999L15.9837 3.23612C15.8045 2.9289 15.4756 2.73999 15.1199 2.73999V3.73999ZM16.7999 6.61999L15.9361 7.12386C16.1153 7.43108 16.4442 7.61999 16.7999 7.61999V6.61999ZM3.3999 18.86V9.01999H1.3999V18.86H3.3999ZM4.7999 7.61999H7.1999V5.61999H4.7999V7.61999ZM8.06368 7.12386L9.74368 4.24386L8.01612 3.23612L6.33612 6.11612L8.06368 7.12386ZM8.8799 4.73999H15.1199V2.73999H8.8799V4.73999ZM14.2561 4.24386L15.9361 7.12386L17.6637 6.11612L15.9837 3.23612L14.2561 4.24386ZM16.7999 7.61999H19.1999V5.61999H16.7999V7.61999ZM20.5999 9.01999V18.86H22.5999V9.01999H20.5999ZM20.5999 18.86C20.5999 19.6332 19.9731 20.26 19.1999 20.26V22.26C21.0777 22.26 22.5999 20.7378 22.5999 18.86H20.5999ZM19.1999 7.61999C19.9731 7.61999 20.5999 8.24679 20.5999 9.01999H22.5999C22.5999 7.14222 21.0777 5.61999 19.1999 5.61999V7.61999ZM3.3999 9.01999C3.3999 8.24679 4.0267 7.61999 4.7999 7.61999V5.61999C2.92213 5.61999 1.3999 7.14222 1.3999 9.01999H3.3999ZM4.7999 20.26C4.0267 20.26 3.3999 19.6332 3.3999 18.86H1.3999C1.3999 20.7378 2.92213 22.26 4.7999 22.26V20.26ZM14.5999 13.34C14.5999 14.7759 13.4358 15.94 11.9999 15.94V17.94C14.5404 17.94 16.5999 15.8805 16.5999 13.34H14.5999ZM11.9999 15.94C10.564 15.94 9.3999 14.7759 9.3999 13.34H7.3999C7.3999 15.8805 9.45939 17.94 11.9999 17.94V15.94ZM9.3999 13.34C9.3999 11.904 10.564 10.74 11.9999 10.74V8.73999C9.45939 8.73999 7.3999 10.7995 7.3999 13.34H9.3999ZM11.9999 10.74C13.4358 10.74 14.5999 11.904 14.5999 13.34H16.5999C16.5999 10.7995 14.5404 8.73999 11.9999 8.73999V10.74ZM19.1999 20.26H4.7999V22.26H19.1999V20.26Z" fill="#010132"/>
</g>
</svg>
