<svg width="24" height="25" viewBox="0 0 24 25" fill="none" xmlns="http://www.w3.org/2000/svg">
<g id="map-02">
<path id="Icon" d="M2.36136 5.30001L19.0659 22.1706M2.36136 5.30001C2.98287 4.56599 3.91116 4.10001 4.94829 4.10001H10.5954M2.36136 5.30001C1.86148 5.89037 1.56006 6.65411 1.56006 7.48825V19.9118C1.56006 21.783 3.07702 23.3 4.94829 23.3H17.3718C19.2431 23.3 20.7601 21.783 20.7601 19.9118V14.8294M10.5954 14.8294L3.25418 22.1706M18.6001 5.54001V5.46782M22.4401 5.45653C22.4401 7.96088 18.6001 11.3 18.6001 11.3C18.6001 11.3 14.7601 7.96088 14.7601 5.45653C14.7601 3.38186 16.4793 1.70001 18.6001 1.70001C20.7208 1.70001 22.4401 3.38186 22.4401 5.45653Z" stroke="#010132" stroke-width="2" stroke-linecap="round" stroke-linejoin="round"/>
</g>
</svg>
