<svg width="24" height="25" viewBox="0 0 24 25" fill="none" xmlns="http://www.w3.org/2000/svg">
<g id="home-05">
<path id="Icon" d="M20.9399 11.3L19.1999 9.56122V5.30002C19.1999 4.64002 18.6599 4.10002 17.9999 4.10002H16.7999C16.1399 4.10002 15.5999 4.64002 15.5999 5.30002V5.96362L13.1999 3.56602C12.8723 3.25642 12.5723 2.90002 11.9999 2.90002C11.4275 2.90002 11.1275 3.25642 10.7999 3.56602L3.0599 11.3C2.6855 11.69 2.3999 11.9744 2.3999 12.5C2.3999 13.1756 2.9183 13.7 3.5999 13.7H4.7999V20.9C4.7999 21.56 5.3399 22.1 5.9999 22.1H8.3999C9.06264 22.1 9.5999 21.5628 9.5999 20.9V16.1C9.5999 15.44 10.1399 14.9 10.7999 14.9H13.1999C13.8599 14.9 14.3999 15.44 14.3999 16.1V20.9C14.3999 21.5628 14.3372 22.1 14.9999 22.1H17.9999C18.6599 22.1 19.1999 21.56 19.1999 20.9V13.7H20.3999C21.0815 13.7 21.5999 13.1756 21.5999 12.5C21.5999 11.9744 21.3143 11.69 20.9399 11.3Z" stroke="#B3C2FF" stroke-width="2" stroke-linejoin="round"/>
</g>
</svg>
