<svg width="24" height="25" viewBox="0 0 24 25" fill="none" xmlns="http://www.w3.org/2000/svg">
<g id="save-02">
<path id="Icon" d="M6.5999 20.9V15.5C6.5999 14.8373 7.13716 14.3 7.7999 14.3H16.1999C16.8626 14.3 17.3999 14.8373 17.3999 15.5V21.5M17.3999 4.10002V6.50002C17.3999 7.16277 16.8626 7.70002 16.1999 7.70002L7.7999 7.70002C7.13716 7.70002 6.5999 7.16276 6.5999 6.50002V2.90002M20.9974 7.0975L17.4024 3.50255C17.0166 3.11676 16.4934 2.90003 15.9478 2.90002H4.45705C3.3209 2.90002 2.3999 3.82102 2.3999 4.95717V20.0429C2.3999 21.179 3.3209 22.1 4.45705 22.1H19.5428C20.6789 22.1 21.5999 21.179 21.5999 20.0429V8.55211C21.5999 8.00652 21.3832 7.48328 20.9974 7.0975Z" stroke="#010132" stroke-width="2" stroke-linecap="round"/>
</g>
</svg>
