<svg width="80" height="73" viewBox="0 0 80 73" fill="none" xmlns="http://www.w3.org/2000/svg">
<g id="Crane" clip-path="url(#clip0_64_54)">
<g id="Group">
<path id="Vector" d="M38.6565 0.0377731C38.519 0.0503616 38.1002 0.0944099 37.719 0.132172C34.269 0.471996 30.3002 1.69286 26.7815 3.49269C20.8252 6.54484 16.8752 10.6542 16.0002 14.7196C15.7815 15.7202 15.7815 16.1796 16.0002 17.9039C16.1815 19.3639 16.5377 22.3154 17.0002 26.0849C17.1065 26.9471 17.3627 29.0301 17.569 30.7104C17.7752 32.3906 17.9315 33.8129 17.919 33.8695C17.9002 33.9261 17.219 34.9582 16.4002 36.1602C15.5752 37.3622 14.9127 38.3691 14.919 38.3942C14.9377 38.4446 22.8252 49.4198 22.9377 49.5456C22.9627 49.5771 24.1127 49.8036 25.494 50.0554C26.8815 50.3134 28.0315 50.5462 28.0627 50.5714C28.0877 50.6029 28.2752 51.5154 28.4752 52.5915L28.8377 54.5612L32.3002 56.5121L35.7627 58.463H40.0002H44.2377L47.7002 56.5121L51.1627 54.5612L51.5315 52.56C51.7315 51.465 51.9002 50.5588 51.9065 50.5462C51.9127 50.5399 53.0627 50.3197 54.469 50.0617C55.869 49.8099 57.0377 49.5708 57.0627 49.5456C57.1752 49.4198 65.0627 38.4446 65.0815 38.3942C65.0877 38.3691 64.4252 37.3622 63.6002 36.1602C62.7815 34.9582 62.1002 33.9261 62.0877 33.8695C62.069 33.8129 62.3252 31.5788 62.6502 28.9168C62.9815 26.2486 63.3627 23.1335 63.5002 21.9944C63.6377 20.8491 63.8565 19.1122 63.9752 18.1242C64.1502 16.7208 64.1877 16.2173 64.1565 15.7957C63.8252 11.3528 59.5127 6.59519 52.844 3.30389C49.4002 1.61105 46.0627 0.591568 42.5315 0.151051C41.819 0.0629463 39.1877 -0.0125694 38.6565 0.0377731ZM28.069 30.9998C29.0627 31.1886 30.5127 31.604 31.6877 32.0445C34.5127 33.1017 36.1752 34.2156 36.694 35.3987C36.8127 35.6756 36.8252 35.7826 36.794 36.4308C36.7565 37.3055 36.6065 37.8782 36.219 38.6774C35.2252 40.7038 32.869 42.3274 29.7815 43.1078C28.144 43.5294 25.869 43.7308 25.1565 43.5231C23.8002 43.1204 22.9065 41.5282 22.5377 38.8285C22.394 37.8342 22.294 35.9903 22.3315 35.2099C22.4002 33.7814 22.7565 32.7808 23.4377 32.0948C24.3877 31.1383 26.3565 30.6726 28.069 30.9998ZM54.6565 31.0879C56.6377 31.5977 57.5502 32.85 57.669 35.2099C57.7065 35.9903 57.6065 37.8342 57.4627 38.8285C57.094 41.5282 56.2002 43.1204 54.844 43.5231C54.1315 43.7308 51.8565 43.5294 50.219 43.1078C47.1315 42.3274 44.7752 40.7038 43.7815 38.6774C43.394 37.8782 43.244 37.3055 43.2065 36.4308C43.169 35.6064 43.2315 35.3673 43.6752 34.782C44.719 33.3912 48.4002 31.7173 52.0627 30.9621C52.5377 30.8677 54.0877 30.9369 54.6565 31.0879ZM41.969 45.3544C43.0252 47.2549 43.9627 48.9226 44.044 49.0611L44.1877 49.3191L43.2565 50.0239L42.3252 50.7224L41.1627 50.0239L40.0002 49.3191L38.8377 50.0239L37.6752 50.7224L36.744 50.0239L35.8127 49.3191L35.9565 49.0611C36.0377 48.9226 36.9752 47.2549 38.0315 45.3544C39.0877 43.4602 39.9752 41.9121 40.0002 41.9121C40.0252 41.9121 40.9127 43.4602 41.969 45.3544Z" fill="white"/>
<path id="Vector_2" d="M5.16875 30.6159C3.2875 30.8739 1.4875 31.755 0.89375 32.6989C0.59375 33.1772 0.5375 33.4226 0.58125 34.1023C0.64375 35.1155 0.81875 35.556 1.5875 36.6258C2.35 37.6894 2.575 38.4319 2.5875 39.8668C2.59375 41.182 2.4 41.654 1.34375 42.9189C0.70625 43.6804 0.3875 44.2468 0.225 44.9013C0.1 45.3984 0 46.0781 0 46.4871V46.8207H2.8C6.3125 46.8207 8.16875 46.9088 10.0937 47.1731C12.625 47.5129 15.375 48.2932 19.0562 49.7092C19.5187 49.8854 19.9062 50.0176 19.9187 50.0113C19.9312 49.9987 18.2812 47.6954 16.2625 44.895L12.5812 39.8038L11.9 39.4326C8.975 37.8467 7.83125 36.0972 6.975 31.8934C6.85 31.2956 6.7375 30.7418 6.71875 30.66C6.6875 30.5341 6.65 30.5215 6.23125 30.5278C5.9875 30.5341 5.50625 30.5719 5.16875 30.6159Z" fill="white"/>
<path id="Vector_3" d="M73.2874 30.6285C73.2749 30.6914 73.1999 31.0501 73.1249 31.434C73.0499 31.8116 72.8936 32.5101 72.7811 32.9758C71.9311 36.4056 70.7999 37.9726 68.0999 39.4326L67.4186 39.8038L63.7374 44.895C61.7186 47.6954 60.0686 49.9987 60.0811 50.0113C60.0936 50.0176 60.4811 49.8854 60.9436 49.7092C64.6249 48.2932 67.3749 47.5129 69.9061 47.1731C71.8311 46.9088 73.6874 46.8207 77.2061 46.8207H79.9999V46.4871C79.9999 46.0781 79.8999 45.3984 79.7749 44.9013C79.6249 44.2908 79.2749 43.6615 78.7436 43.0322C77.5374 41.61 77.2749 40.8548 77.4311 39.2312C77.5249 38.2746 77.7311 37.6327 78.1499 37.016C78.3311 36.7517 78.6061 36.3426 78.7624 36.1098C78.9186 35.8769 79.1061 35.5308 79.1811 35.342C79.4374 34.6561 79.5124 33.6492 79.3436 33.1709C78.9186 31.9563 77.0561 30.918 74.7624 30.6159C73.7749 30.4838 73.3311 30.4901 73.2874 30.6285Z" fill="white"/>
<path id="Vector_4" d="M28.875 56.3233C28.875 56.5372 29.775 59.5831 29.8625 59.6712C29.9188 59.7278 30.3375 60.0488 30.7813 60.376L31.5938 60.9865L31.6125 59.4321C31.6188 58.5762 31.6063 57.8525 31.5813 57.8273C31.55 57.8021 31.025 57.4938 30.4063 57.1414C29.7875 56.7889 29.1875 56.4491 29.0813 56.3799C28.9688 56.317 28.875 56.2918 28.875 56.3233Z" fill="white"/>
<path id="Vector_5" d="M49.7497 57.0469L48.4059 57.821L48.3872 59.4069C48.3747 60.6718 48.3872 60.9801 48.4497 60.9424C48.4934 60.9172 48.9184 60.6025 49.3872 60.2438C50.1684 59.6523 50.2497 59.5705 50.3122 59.3313C50.3559 59.1803 50.5497 58.4566 50.7559 57.714C50.9622 56.9777 51.1247 56.3547 51.1122 56.3295C51.0997 56.3044 50.4872 56.6253 49.7497 57.0469Z" fill="white"/>
<path id="Vector_6" d="M25.8313 56.7323C25.55 56.9274 23.7438 57.821 22.8688 58.1986C19.7625 59.5265 16.6688 60.3509 13.7 60.634C13.1625 60.6844 12.4438 60.7284 12.1 60.7284C10.8625 60.7347 10.0813 61.0242 9.3375 61.7668C9.00625 62.1003 8.825 62.3458 8.63125 62.7485C8.38125 63.2583 8.1875 64.0071 8.1875 64.4602C8.1875 64.6616 8.19375 64.6616 8.7375 64.8064C10.9125 65.3916 12.5188 66.4489 13.5188 67.9781C13.9625 68.6515 14.1813 69.0983 14.6625 70.3128C15.35 72.0183 15.6313 72.4588 16.2813 72.7986C16.5688 72.9496 16.6563 72.9685 17.2813 72.9622C17.825 72.9622 18.0563 72.9308 18.375 72.8175C19.2813 72.5028 20.0438 71.8043 21.3438 70.1052C22.4 68.7144 22.9313 68.0977 23.7188 67.3047C25.225 65.7818 27.1 64.5106 29.1875 63.5981L29.9438 63.2646L28.6438 62.2828L27.3438 61.3011L26.7625 59.2055C26.4438 58.0539 26.1563 57.0029 26.1188 56.8708C26.05 56.6127 26.025 56.6002 25.8313 56.7323Z" fill="white"/>
<path id="Vector_7" d="M53.8813 56.8708C53.8438 57.0029 53.5563 58.0539 53.2375 59.2055L52.6562 61.3011L51.3563 62.2828L50.0625 63.2583L50.9187 63.6484C53.0375 64.5987 54.7812 65.7881 56.2812 67.3047C57.0687 68.0977 57.6 68.7144 58.6562 70.1052C59.9563 71.8043 60.7188 72.5028 61.625 72.8175C61.9438 72.9308 62.175 72.9622 62.7188 72.9622C63.3438 72.9685 63.4313 72.9496 63.7188 72.7986C64.3688 72.4588 64.65 72.0183 65.3375 70.3128C65.7875 69.1738 66.0312 68.6703 66.4062 68.0914C67.4312 66.4929 68.975 65.4357 71.1688 64.8378L71.8125 64.6616V64.454C71.8125 64.0197 71.6125 63.2583 71.3625 62.7485C71.1688 62.3458 71 62.1066 70.6625 61.7668C69.9188 61.0242 69.1375 60.7347 67.9 60.7284C64.1062 60.7221 58.6313 59.1866 54.6937 57.0218C54.3063 56.8078 53.9813 56.6379 53.9688 56.6379C53.9562 56.6379 53.9125 56.7449 53.8813 56.8708Z" fill="white"/>
<path id="Vector_8" d="M32.575 59.9481L32.5938 61.5025L33.9063 62.2136C34.6313 62.6038 35.2563 62.9247 35.3 62.931C35.3625 62.931 35.375 62.5975 35.3625 61.3703L35.3438 59.8159L33.95 59.1048L32.5625 58.3937L32.575 59.9481Z" fill="white"/>
<path id="Vector_9" d="M46.0313 59.1174L44.6563 59.8159L44.6376 61.3703C44.6251 62.4402 44.6438 62.931 44.6876 62.931C44.7563 62.931 47.3063 61.5717 47.3938 61.4899C47.4188 61.4647 47.4313 60.7599 47.4251 59.9292L47.4063 58.4126L46.0313 59.1174Z" fill="white"/>
<path id="Vector_10" d="M36.2625 61.5277L36.2813 63.1513H37.9063H39.5313L39.55 61.5277L39.5625 59.9104H37.9063H36.25L36.2625 61.5277Z" fill="white"/>
<path id="Vector_11" d="M40.45 61.5277L40.4688 63.1513H42.0938H43.7188L43.7375 61.5277L43.75 59.9104H42.0938H40.4375L40.45 61.5277Z" fill="white"/>
</g>
</g>
<defs>
<clipPath id="clip0_64_54">
<rect width="80" height="73" fill="white"/>
</clipPath>
</defs>
</svg>
